<svg width="40" height="40" viewBox="0 0 40 40" fill="none" xmlns="http://www.w3.org/2000/svg">
<g id="icon / jam-icons / outline &#38; logos / align-center">
<path id="Vector" d="M13.3333 11.6667H26.6666C27.1087 11.6667 27.5326 11.8423 27.8452 12.1548C28.1577 12.4674 28.3333 12.8913 28.3333 13.3333C28.3333 13.7754 28.1577 14.1993 27.8452 14.5118C27.5326 14.8244 27.1087 15 26.6666 15H13.3333C12.8913 15 12.4674 14.8244 12.1548 14.5118C11.8422 14.1993 11.6666 13.7754 11.6666 13.3333C11.6666 12.8913 11.8422 12.4674 12.1548 12.1548C12.4674 11.8423 12.8913 11.6667 13.3333 11.6667V11.6667ZM13.3333 25H26.6666C27.1087 25 27.5326 25.1756 27.8452 25.4882C28.1577 25.8007 28.3333 26.2246 28.3333 26.6667C28.3333 27.1087 28.1577 27.5326 27.8452 27.8452C27.5326 28.1577 27.1087 28.3333 26.6666 28.3333H13.3333C12.8913 28.3333 12.4674 28.1577 12.1548 27.8452C11.8422 27.5326 11.6666 27.1087 11.6666 26.6667C11.6666 26.2246 11.8422 25.8007 12.1548 25.4882C12.4674 25.1756 12.8913 25 13.3333 25ZM9.99998 18.3333H30C30.442 18.3333 30.8659 18.5089 31.1785 18.8215C31.4911 19.1341 31.6666 19.558 31.6666 20C31.6666 20.442 31.4911 20.866 31.1785 21.1785C30.8659 21.4911 30.442 21.6667 30 21.6667H9.99998C9.55795 21.6667 9.13403 21.4911 8.82147 21.1785C8.50891 20.866 8.33331 20.442 8.33331 20C8.33331 19.558 8.50891 19.1341 8.82147 18.8215C9.13403 18.5089 9.55795 18.3333 9.99998 18.3333Z" fill="#1A201B"/>
</g>
</svg>
