<svg width="52" height="52" viewBox="0 0 52 52" fill="none" xmlns="http://www.w3.org/2000/svg">
<g id="Calque_1" clip-path="url(#clip0_298_2690)">
<path id="Vector" d="M29.6052 52C28.324 52 27.0564 51.7399 25.8296 51.2198C23.2126 50.1111 21.3043 48.1537 20.3366 45.5667C18.4011 40.4064 20.8 34.4796 21.9313 32.1664C25.1208 25.5962 29.7824 19.7378 35.4118 15.084C34.5531 13.3182 33.5172 11.9084 32.3313 10.8681C28.5012 7.54198 21.7814 7.66517 17.0244 11.1282C12.5263 14.4133 9.5004 20.299 8.6962 27.3209C7.90564 34.2195 9.17327 41.3646 10.5499 48.0716L2.27628 49.7826C0.817827 42.7197 -0.640626 34.507 0.286242 26.3627C1.36304 17.0003 5.64299 8.95183 12.0493 4.28429C19.9685 -1.49197 31.0637 -1.42353 37.838 4.46223C39.61 5.99526 41.1366 7.92524 42.3906 10.2248C44.476 9.02027 46.6433 7.95262 48.8786 7.06291L52 14.9334C49.6965 15.8505 47.4883 16.9866 45.3756 18.3006C47.352 27.0608 45.8527 36.5054 41.1502 44.2116C38.0834 49.2214 33.8307 52 29.6052 52ZM37.7153 24.4054C34.3759 27.7452 31.5817 31.6325 29.5098 35.8894C28.2558 38.4901 27.7242 41.2414 28.2286 42.5965C28.324 42.8702 28.4876 43.1577 29.1009 43.4177C30.5594 44.02 32.8084 41.652 33.9533 39.7768C36.7203 35.2461 38.0152 29.7573 37.7153 24.4054Z" fill="#9B37F1"/>
</g>
<defs>
<clipPath id="clip0_298_2690">
<rect width="52" height="52" fill="white"/>
</clipPath>
</defs>
</svg>
