<svg width="98" height="24" viewBox="0 0 98 24" fill="none" xmlns="http://www.w3.org/2000/svg">
<g id="Calque_1" clip-path="url(#clip0_299_2960)">
<path id="Vector" d="M95.7181 23.1316C96.9783 23.1316 97.9999 22.1124 97.9999 20.8553C97.9999 19.5981 96.9783 18.5789 95.7181 18.5789C94.4579 18.5789 93.4363 19.5981 93.4363 20.8553C93.4363 22.1124 94.4579 23.1316 95.7181 23.1316Z" fill="#BEE72E"/>
<path id="Vector_2" d="M13.203 24C12.6358 24 12.0686 23.8816 11.5147 23.6579C10.3408 23.171 9.49664 22.3026 9.06138 21.1579C8.20404 18.8684 9.27241 16.25 9.77362 15.2237C11.1981 12.3158 13.2689 9.72368 15.7882 7.65789C15.4057 6.88158 14.944 6.25 14.4164 5.78947C12.7149 4.31579 9.70767 4.36842 7.59731 5.90789C5.59247 7.35526 4.23392 9.97368 3.8778 13.0789C3.52167 16.1316 4.08883 19.3026 4.70875 22.2632L1.01562 23.0263C0.369317 19.8947 -0.290172 16.25 0.131901 12.6447C0.606733 8.5 2.51925 4.93421 5.36824 2.86842C8.9031 0.315787 13.8493 0.342103 16.8697 2.94737C17.6611 3.63158 18.3338 4.48684 18.9009 5.5C19.8374 4.96052 20.8003 4.5 21.7895 4.10526L23.1744 7.5921C22.1456 8 21.1564 8.5 20.2199 9.07894C21.1036 12.9605 20.431 17.1447 18.3338 20.5526C16.962 22.7763 15.0627 24 13.1898 24H13.203ZM16.817 11.7763C15.3265 13.2632 14.0735 14.9737 13.1634 16.8553C12.5962 18 12.372 19.2237 12.5962 19.8289C12.6358 19.9474 12.7149 20.0789 12.9787 20.1974C13.625 20.4605 14.6275 19.421 15.1419 18.5921C16.3817 16.5921 16.9489 14.1579 16.817 11.7895V11.7763Z" fill="#2D3047"/>
<path id="Vector_3" d="M30.3497 23.1316C30.0595 23.1316 29.7562 23.1184 29.4528 23.079C27.9756 22.9211 26.6302 22.3947 25.5882 21.5658C24.3748 20.6053 23.491 19.1447 23.1217 17.4737C22.792 15.9737 22.8843 14.5 22.9898 13.3816C23.1217 12.1184 23.3723 10.6579 24.2033 9.32895C25.6674 7.01316 28.6482 5.77632 31.4577 6.31579C34.2671 6.85527 36.4962 9.10526 36.8655 11.7763C36.9842 12.5921 36.5225 13.3816 35.7311 13.7237C34.3594 14.3158 32.6052 15.1053 30.8509 15.8947C29.6243 16.4474 28.3844 17 27.2765 17.5C27.4875 17.9868 27.7909 18.3947 28.147 18.6842C28.5823 19.0395 29.2022 19.2632 29.8881 19.3421C31.3785 19.4868 32.9877 18.8289 33.8582 17.6711L37.1161 19.8421C35.5729 21.8816 32.9745 23.1184 30.3233 23.1184L30.3497 23.1316ZM30.1519 9.96053C29.1626 9.96053 28.147 10.4737 27.6458 11.2632C27.2633 11.8816 27.105 12.6842 26.9995 13.4868C27.6986 13.1711 28.4108 12.8553 29.1363 12.5263C30.2442 12.0263 31.3653 11.5263 32.3809 11.0658C31.9589 10.5263 31.339 10.1316 30.6663 10C30.4948 9.97369 30.3233 9.94737 30.1519 9.94737V9.96053Z" fill="#2D3047"/>
<path id="Vector_4" d="M60.3959 23.1316C59.3539 23.1316 58.2987 22.9342 57.3227 22.5263C55.3838 21.7105 53.8142 20.1316 53.0228 18.1974L56.6896 16.7105C57.0853 17.6711 57.8899 18.4868 58.8527 18.8947C59.8156 19.2895 60.9631 19.3026 61.9259 18.8947C62.6777 18.5789 63.2449 18.0395 63.4164 17.4605C63.5483 17.0263 63.3636 16.5132 63.1262 16.3816C62.6514 16.1184 61.4379 16.2763 60.4882 16.1974C58.6417 16.0395 57.0193 15.2105 56.0169 13.9079C54.7243 12.2237 54.6584 9.84211 55.8586 8.25C56.716 7.10526 58.1273 6.4079 59.9079 6.26316C62.4403 6.03947 64.9991 6.85526 66.938 8.5L64.3792 11.5132C63.2581 10.5658 61.7017 10.0789 60.2376 10.1974C59.5254 10.2632 59.1297 10.4605 59.0242 10.6184C58.9055 10.7763 58.9318 11.2105 59.1561 11.5132C59.4726 11.9211 60.0925 12.2105 60.818 12.2632C61.1082 12.2895 61.3983 12.2895 61.6885 12.2895C62.6514 12.2895 63.8648 12.2895 65.0255 12.9211C66.9248 13.9605 67.8613 16.3947 67.2018 18.5921C66.6874 20.3289 65.3025 21.7632 63.4296 22.5395C62.4667 22.9342 61.4247 23.1447 60.3827 23.1447L60.3959 23.1316Z" fill="#2E3047"/>
<path id="Vector_5" d="M45.2409 23.1316C44.1989 23.1316 43.1437 22.9342 42.1677 22.5263C40.2288 21.7237 38.6592 20.1447 37.8678 18.1974L41.5346 16.7105C41.9302 17.671 42.7348 18.4868 43.6977 18.8947C44.6605 19.3026 45.808 19.3026 46.7709 18.8947C47.5227 18.5789 48.0899 18.0395 48.2613 17.4605C48.3932 17.0263 48.2086 16.5132 47.9712 16.3816C47.4963 16.1184 46.2829 16.2763 45.3332 16.1974C43.4866 16.0395 41.8643 15.2105 40.8619 13.9079C39.5693 12.2237 39.5033 9.85526 40.7036 8.26315C41.5609 7.11842 42.9722 6.42105 44.7529 6.27631C47.2853 6.05263 49.8441 6.86842 51.783 8.51315L49.2242 11.5263C48.1031 10.5789 46.5467 10.0789 45.0826 10.2105C44.3704 10.2763 43.9747 10.4737 43.8691 10.6316C43.7504 10.7895 43.79 11.2368 44.001 11.5132C44.3176 11.921 44.9375 12.2105 45.663 12.2632C45.9531 12.2895 46.2433 12.2895 46.5335 12.2895C47.4963 12.2895 48.7098 12.2895 49.8705 12.9342C51.7698 13.9737 52.7063 16.4079 52.0468 18.6053C51.5324 20.3421 50.1475 21.7763 48.2745 22.5526C47.3117 22.9474 46.2697 23.1579 45.2277 23.1579L45.2409 23.1316Z" fill="#2E3047"/>
<path id="Vector_6" d="M82.8186 23.5263C82.1987 23.5263 81.5392 23.4737 80.8797 23.3158C79.2706 22.9342 77.9648 21.9079 77.3844 20.5658C76.7513 19.1184 76.9756 17.3158 77.9912 15.7632C79.231 13.8553 81.4205 12.5789 83.7023 12.4605C84.4146 12.4211 85.14 12.5 85.8391 12.6711C85.8127 12.5789 85.7731 12.4868 85.7336 12.3947C85.3115 11.3421 84.5597 10.5789 83.7683 10.4079C83.1747 10.2632 82.4493 10.4342 81.8162 10.8553C81.1699 11.2763 80.5764 11.9474 80.062 12.8553L76.7909 10.9868C77.6087 9.55263 78.6111 8.44737 79.7586 7.71053C81.2622 6.73684 83.0428 6.38158 84.6256 6.75C86.6173 7.21053 88.3451 8.78947 89.2288 11C89.7696 12.3421 89.9675 13.7105 90.073 15.0132C90.2049 15.7632 90.3236 17.25 90.1389 20.2237C90.1126 20.6447 90.0334 21.7632 89.1233 22.5526C88.3847 23.1842 87.5142 23.25 87.0921 23.2763L84.3223 23.4605C83.8474 23.5 83.3462 23.5263 82.8318 23.5263H82.8186ZM84.0716 16.1974C84.0716 16.1974 83.9529 16.1974 83.9002 16.1974C82.8186 16.25 81.7371 16.8816 81.1435 17.7895C80.8402 18.2632 80.7083 18.7763 80.8402 19.0658C80.9457 19.3026 81.3282 19.5526 81.7634 19.6579C82.4229 19.8158 83.2143 19.7632 84.0585 19.7105L86.393 19.5526C86.4458 18.5132 86.4722 17.7237 86.459 17.1184C85.8127 16.5526 84.9422 16.2105 84.0716 16.2105V16.1974Z" fill="#9B37F1"/>
<g id="Group">
<path id="Vector_7" d="M74.641 7.75H70.7368V23.1316H74.641V7.75Z" fill="#9B37F1"/>
<path id="Vector_8" d="M75.6434 2.28947H74.2848L75.2345 1.32895L74.3112 0.394737L73.3484 1.35526V0H72.0294V1.35526L71.0665 0.394737L70.1301 1.32895L71.0929 2.28947H69.7344V3.60526H71.0929L70.1301 4.56579L71.0665 5.5L72.0294 4.53947V5.89474H73.3484V4.53947L74.3112 5.5L75.2345 4.56579L74.2848 3.60526H75.6434V2.28947Z" fill="#9B37F1"/>
</g>
</g>
<defs>
<clipPath id="clip0_299_2960">
<rect width="98" height="24" fill="white"/>
</clipPath>
</defs>
</svg>
