<svg width="25" height="24" viewBox="0 0 25 24" fill="none" xmlns="http://www.w3.org/2000/svg">
<g id="icon / jam-icons / outline &#38; logos / Google">
<path id="Icon" fill-rule="evenodd" clip-rule="evenodd" d="M12.5 2.25C7.11554 2.25 2.75 6.61554 2.75 12C2.75 17.3845 7.11554 21.75 12.5 21.75C17.8845 21.75 22.25 17.3845 22.25 12C22.25 11.348 22.1832 10.6728 22.0607 10.0543C21.9911 9.70305 21.683 9.45 21.3249 9.45H12.5C12.0858 9.45 11.75 9.78579 11.75 10.2V13.8C11.75 14.2142 12.0858 14.55 12.5 14.55H16.3828C16.1018 14.978 15.7524 15.3568 15.3502 15.6706C15.3443 15.6743 15.3386 15.678 15.3328 15.6819L15.3315 15.6828L15.3325 15.6843C14.5486 16.2899 13.5665 16.65 12.5 16.65C9.93206 16.65 7.85 14.5679 7.85 12C7.85 9.43206 9.93206 7.35 12.5 7.35C13.6837 7.35 14.7608 7.79565 15.584 8.52792C15.8807 8.79193 16.3319 8.77876 16.6128 8.49788L19.1584 5.95223C19.3023 5.80834 19.3816 5.61216 19.378 5.4087C19.3744 5.20524 19.2883 5.01197 19.1394 4.87324C17.4004 3.25246 15.0699 2.25 12.5 2.25ZM15.702 17.2492C14.7705 17.8203 13.6746 18.15 12.5 18.15C10.192 18.15 8.18074 16.8784 7.12878 14.9975L5.45169 16.2897C6.90019 18.6644 9.51508 20.25 12.5 20.25C14.3212 20.25 16.0046 19.6598 17.3695 18.6602L15.702 17.2492ZM18.5054 17.6564C19.8971 16.1795 20.75 14.1893 20.75 12C20.75 11.6525 20.7275 11.2961 20.6853 10.95H13.25V13.05H17.5864C17.8299 13.05 18.0583 13.1683 18.1988 13.3671C18.3394 13.566 18.3746 13.8208 18.2933 14.0503C17.9929 14.8989 17.5119 15.6627 16.8961 16.2946L18.5054 17.6564ZM5.51958 7.60094C6.98099 5.287 9.56115 3.75 12.5 3.75C14.3918 3.75 16.1306 4.39163 17.5229 5.46644L16.0236 6.96571C15.0272 6.26519 13.8133 5.85 12.5 5.85C10.2561 5.85 8.29278 7.05193 7.21872 8.84704L5.51958 7.60094ZM4.83007 8.95541C4.45577 9.89743 4.25 10.9247 4.25 12C4.25 13.0258 4.43727 14.0079 4.77947 14.914L6.54748 13.5518C6.41859 13.0561 6.35 12.5361 6.35 12C6.35 11.3936 6.43777 10.8078 6.6013 10.2544L4.83007 8.95541Z" fill="#1A201B"/>
</g>
</svg>
